<mxfile host="app.diagrams.net" modified="2023-07-25T00:59:39.935Z" agent="Mozilla/5.0 (Windows NT 10.0; Win64; x64) AppleWebKit/537.36 (KHTML, like Gecko) Chrome/115.0.0.0 Safari/537.36 Edg/115.0.1901.183" etag="Fx7LrQoqfuh-NeR7LE8a" version="21.6.5" type="device">
  <diagram name="PÃ¡gina-1" id="wMQEydEDd_65zdSwji86">
    <mxGraphModel dx="1728" dy="969" grid="1" gridSize="10" guides="1" tooltips="1" connect="1" arrows="1" fold="1" page="1" pageScale="1" pageWidth="1169" pageHeight="827" math="0" shadow="0">
      <root>
        <mxCell id="0" />
        <mxCell id="1" parent="0" />
        <mxCell id="37ORd5RXPhSGU9sbFM5K-28" style="edgeStyle=orthogonalEdgeStyle;rounded=0;orthogonalLoop=1;jettySize=auto;html=1;entryX=0.5;entryY=0;entryDx=0;entryDy=0;exitX=0.5;exitY=1;exitDx=0;exitDy=0;" edge="1" parent="1" source="37ORd5RXPhSGU9sbFM5K-77" target="37ORd5RXPhSGU9sbFM5K-27">
          <mxGeometry relative="1" as="geometry">
            <mxPoint x="460" y="79.86000000000013" as="sourcePoint" />
          </mxGeometry>
        </mxCell>
        <mxCell id="37ORd5RXPhSGU9sbFM5K-12" style="edgeStyle=orthogonalEdgeStyle;rounded=0;orthogonalLoop=1;jettySize=auto;html=1;entryX=0;entryY=0.5;entryDx=0;entryDy=0;" edge="1" parent="1" source="37ORd5RXPhSGU9sbFM5K-3" target="37ORd5RXPhSGU9sbFM5K-10">
          <mxGeometry relative="1" as="geometry" />
        </mxCell>
        <mxCell id="37ORd5RXPhSGU9sbFM5K-23" style="edgeStyle=orthogonalEdgeStyle;rounded=0;orthogonalLoop=1;jettySize=auto;html=1;entryX=0.984;entryY=0.619;entryDx=0;entryDy=0;entryPerimeter=0;" edge="1" parent="1" source="37ORd5RXPhSGU9sbFM5K-3" target="37ORd5RXPhSGU9sbFM5K-17">
          <mxGeometry relative="1" as="geometry" />
        </mxCell>
        <mxCell id="37ORd5RXPhSGU9sbFM5K-25" style="edgeStyle=orthogonalEdgeStyle;rounded=0;orthogonalLoop=1;jettySize=auto;html=1;" edge="1" parent="1" source="37ORd5RXPhSGU9sbFM5K-3" target="37ORd5RXPhSGU9sbFM5K-19">
          <mxGeometry relative="1" as="geometry" />
        </mxCell>
        <mxCell id="37ORd5RXPhSGU9sbFM5K-26" style="edgeStyle=orthogonalEdgeStyle;rounded=0;orthogonalLoop=1;jettySize=auto;html=1;" edge="1" parent="1" source="37ORd5RXPhSGU9sbFM5K-3" target="37ORd5RXPhSGU9sbFM5K-11">
          <mxGeometry relative="1" as="geometry" />
        </mxCell>
        <mxCell id="37ORd5RXPhSGU9sbFM5K-3" value="experiment tracking" style="shape=image;verticalLabelPosition=bottom;labelBackgroundColor=default;verticalAlign=top;aspect=fixed;imageAspect=0;image=https://mlflow.org/images/MLflow-logo-final-white-TM.png;" vertex="1" parent="1">
          <mxGeometry x="150" y="331" width="120" height="43.68" as="geometry" />
        </mxCell>
        <mxCell id="37ORd5RXPhSGU9sbFM5K-9" style="edgeStyle=orthogonalEdgeStyle;rounded=0;orthogonalLoop=1;jettySize=auto;html=1;" edge="1" parent="1" source="37ORd5RXPhSGU9sbFM5K-7" target="37ORd5RXPhSGU9sbFM5K-3">
          <mxGeometry relative="1" as="geometry" />
        </mxCell>
        <mxCell id="37ORd5RXPhSGU9sbFM5K-7" value="sklearn models" style="shape=image;verticalLabelPosition=bottom;labelBackgroundColor=default;verticalAlign=top;aspect=fixed;imageAspect=0;image=https://cdn.freebiesupply.com/logos/thumbs/2x/python-5-logo.png;" vertex="1" parent="1">
          <mxGeometry x="170" y="191" width="80" height="60" as="geometry" />
        </mxCell>
        <mxCell id="37ORd5RXPhSGU9sbFM5K-15" style="edgeStyle=orthogonalEdgeStyle;rounded=0;orthogonalLoop=1;jettySize=auto;html=1;" edge="1" parent="1" source="37ORd5RXPhSGU9sbFM5K-10" target="37ORd5RXPhSGU9sbFM5K-14">
          <mxGeometry relative="1" as="geometry" />
        </mxCell>
        <mxCell id="37ORd5RXPhSGU9sbFM5K-10" value="experiment:&lt;br&gt;&lt;b&gt;random-forest-hyperparameter-tuning&lt;/b&gt;" style="rounded=0;whiteSpace=wrap;html=1;fillColor=#d5e8d4;strokeColor=#82b366;" vertex="1" parent="1">
          <mxGeometry x="320" y="301" width="220" height="40" as="geometry" />
        </mxCell>
        <mxCell id="37ORd5RXPhSGU9sbFM5K-16" style="edgeStyle=orthogonalEdgeStyle;rounded=0;orthogonalLoop=1;jettySize=auto;html=1;" edge="1" parent="1" source="37ORd5RXPhSGU9sbFM5K-11" target="37ORd5RXPhSGU9sbFM5K-14">
          <mxGeometry relative="1" as="geometry" />
        </mxCell>
        <mxCell id="37ORd5RXPhSGU9sbFM5K-11" value="experiment:&lt;br&gt;&lt;b&gt;knn-hyperparameter-tuning&lt;/b&gt;" style="rounded=0;whiteSpace=wrap;html=1;fillColor=#d5e8d4;strokeColor=#82b366;" vertex="1" parent="1">
          <mxGeometry x="320" y="351" width="220" height="40" as="geometry" />
        </mxCell>
        <mxCell id="37ORd5RXPhSGU9sbFM5K-38" style="edgeStyle=orthogonalEdgeStyle;rounded=0;orthogonalLoop=1;jettySize=auto;html=1;" edge="1" parent="1" source="37ORd5RXPhSGU9sbFM5K-14" target="37ORd5RXPhSGU9sbFM5K-37">
          <mxGeometry relative="1" as="geometry" />
        </mxCell>
        <mxCell id="37ORd5RXPhSGU9sbFM5K-14" value="experiment:&lt;br&gt;&lt;b&gt;best_model_selection&lt;/b&gt;" style="rounded=0;whiteSpace=wrap;html=1;fillColor=#d5e8d4;strokeColor=#82b366;" vertex="1" parent="1">
          <mxGeometry x="585" y="331" width="220" height="40" as="geometry" />
        </mxCell>
        <mxCell id="37ORd5RXPhSGU9sbFM5K-17" value="mlflowdb" style="image;aspect=fixed;html=1;points=[];align=center;fontSize=12;image=img/lib/azure2/databases/Azure_Database_PostgreSQL_Server.svg;" vertex="1" parent="1">
          <mxGeometry x="36.35000000000002" y="271" width="45" height="60" as="geometry" />
        </mxCell>
        <mxCell id="37ORd5RXPhSGU9sbFM5K-19" value="s3 mlflow bucket" style="sketch=0;outlineConnect=0;fontColor=#232F3E;gradientColor=none;fillColor=#3F8624;strokeColor=none;dashed=0;verticalLabelPosition=bottom;verticalAlign=top;align=center;html=1;fontSize=12;fontStyle=0;aspect=fixed;pointerEvents=1;shape=mxgraph.aws4.bucket;" vertex="1" parent="1">
          <mxGeometry x="23.66" y="371" width="57.69" height="60" as="geometry" />
        </mxCell>
        <mxCell id="37ORd5RXPhSGU9sbFM5K-32" style="edgeStyle=orthogonalEdgeStyle;rounded=0;orthogonalLoop=1;jettySize=auto;html=1;" edge="1" parent="1" source="37ORd5RXPhSGU9sbFM5K-27" target="37ORd5RXPhSGU9sbFM5K-30">
          <mxGeometry relative="1" as="geometry" />
        </mxCell>
        <mxCell id="37ORd5RXPhSGU9sbFM5K-57" style="edgeStyle=orthogonalEdgeStyle;rounded=0;orthogonalLoop=1;jettySize=auto;html=1;entryX=1;entryY=0.5;entryDx=0;entryDy=0;entryPerimeter=0;" edge="1" parent="1" source="37ORd5RXPhSGU9sbFM5K-27" target="37ORd5RXPhSGU9sbFM5K-29">
          <mxGeometry relative="1" as="geometry" />
        </mxCell>
        <mxCell id="37ORd5RXPhSGU9sbFM5K-27" value="split data" style="shape=image;verticalLabelPosition=bottom;labelBackgroundColor=default;verticalAlign=top;aspect=fixed;imageAspect=0;image=https://cdn.freebiesupply.com/logos/thumbs/2x/python-5-logo.png;" vertex="1" parent="1">
          <mxGeometry x="420" y="191" width="80" height="60" as="geometry" />
        </mxCell>
        <mxCell id="37ORd5RXPhSGU9sbFM5K-35" style="edgeStyle=orthogonalEdgeStyle;rounded=0;orthogonalLoop=1;jettySize=auto;html=1;" edge="1" parent="1" source="37ORd5RXPhSGU9sbFM5K-29" target="37ORd5RXPhSGU9sbFM5K-7">
          <mxGeometry relative="1" as="geometry" />
        </mxCell>
        <mxCell id="37ORd5RXPhSGU9sbFM5K-29" value="train and test" style="shape=cylinder3;whiteSpace=wrap;html=1;boundedLbl=1;backgroundOutline=1;size=15;aspect=fixed;" vertex="1" parent="1">
          <mxGeometry x="300" y="187.67000000000002" width="50" height="66.65" as="geometry" />
        </mxCell>
        <mxCell id="37ORd5RXPhSGU9sbFM5K-48" style="edgeStyle=orthogonalEdgeStyle;rounded=0;orthogonalLoop=1;jettySize=auto;html=1;entryX=0.5;entryY=1;entryDx=0;entryDy=0;" edge="1" parent="1" source="37ORd5RXPhSGU9sbFM5K-30" target="37ORd5RXPhSGU9sbFM5K-47">
          <mxGeometry relative="1" as="geometry" />
        </mxCell>
        <mxCell id="37ORd5RXPhSGU9sbFM5K-30" value="validation" style="shape=cylinder3;whiteSpace=wrap;html=1;boundedLbl=1;backgroundOutline=1;size=15;aspect=fixed;" vertex="1" parent="1">
          <mxGeometry x="590" y="187.67000000000002" width="50" height="66.65" as="geometry" />
        </mxCell>
        <mxCell id="37ORd5RXPhSGU9sbFM5K-40" style="edgeStyle=orthogonalEdgeStyle;rounded=0;orthogonalLoop=1;jettySize=auto;html=1;entryX=1;entryY=0.5;entryDx=0;entryDy=0;entryPerimeter=0;exitX=0;exitY=0.5;exitDx=0;exitDy=0;" edge="1" parent="1" source="37ORd5RXPhSGU9sbFM5K-82" target="37ORd5RXPhSGU9sbFM5K-30">
          <mxGeometry relative="1" as="geometry">
            <mxPoint x="840" y="220.99500000000012" as="sourcePoint" />
          </mxGeometry>
        </mxCell>
        <mxCell id="37ORd5RXPhSGU9sbFM5K-54" style="edgeStyle=orthogonalEdgeStyle;rounded=0;orthogonalLoop=1;jettySize=auto;html=1;entryX=0.5;entryY=0;entryDx=0;entryDy=0;" edge="1" parent="1" source="37ORd5RXPhSGU9sbFM5K-37" target="37ORd5RXPhSGU9sbFM5K-79">
          <mxGeometry relative="1" as="geometry">
            <mxPoint x="943" y="463" as="targetPoint" />
          </mxGeometry>
        </mxCell>
        <mxCell id="37ORd5RXPhSGU9sbFM5K-83" style="edgeStyle=orthogonalEdgeStyle;rounded=0;orthogonalLoop=1;jettySize=auto;html=1;exitX=0.5;exitY=0;exitDx=0;exitDy=0;" edge="1" parent="1" source="37ORd5RXPhSGU9sbFM5K-37" target="37ORd5RXPhSGU9sbFM5K-82">
          <mxGeometry relative="1" as="geometry" />
        </mxCell>
        <mxCell id="37ORd5RXPhSGU9sbFM5K-37" value="MLFlow model:&lt;br&gt;&lt;b&gt;real-estate-model&lt;/b&gt;" style="rounded=0;whiteSpace=wrap;html=1;fillColor=#f8cecc;strokeColor=#b85450;" vertex="1" parent="1">
          <mxGeometry x="873" y="321" width="140" height="60" as="geometry" />
        </mxCell>
        <mxCell id="37ORd5RXPhSGU9sbFM5K-43" value="training_metrics dashboard" style="shape=image;verticalLabelPosition=top;labelBackgroundColor=default;verticalAlign=bottom;aspect=fixed;imageAspect=0;image=https://global-uploads.webflow.com/6203daf47137054c031fa0e6/620be9f10cc3d4c77b72b142_grafana_logo.png;labelPosition=center;align=center;" vertex="1" parent="1">
          <mxGeometry x="1030" y="40" width="60" height="60" as="geometry" />
        </mxCell>
        <mxCell id="37ORd5RXPhSGU9sbFM5K-46" style="edgeStyle=orthogonalEdgeStyle;rounded=0;orthogonalLoop=1;jettySize=auto;html=1;entryX=0;entryY=0.5;entryDx=0;entryDy=0;" edge="1" parent="1" source="37ORd5RXPhSGU9sbFM5K-45" target="37ORd5RXPhSGU9sbFM5K-43">
          <mxGeometry relative="1" as="geometry" />
        </mxCell>
        <mxCell id="37ORd5RXPhSGU9sbFM5K-45" value="metrics_training" style="image;aspect=fixed;html=1;points=[];align=center;fontSize=12;image=img/lib/azure2/databases/Azure_Database_PostgreSQL_Server.svg;" vertex="1" parent="1">
          <mxGeometry x="910" y="40" width="45" height="60" as="geometry" />
        </mxCell>
        <mxCell id="37ORd5RXPhSGU9sbFM5K-75" style="edgeStyle=orthogonalEdgeStyle;rounded=0;orthogonalLoop=1;jettySize=auto;html=1;entryX=0;entryY=0.5;entryDx=0;entryDy=0;" edge="1" parent="1" source="37ORd5RXPhSGU9sbFM5K-47" target="37ORd5RXPhSGU9sbFM5K-74">
          <mxGeometry relative="1" as="geometry" />
        </mxCell>
        <mxCell id="37ORd5RXPhSGU9sbFM5K-47" value="validation &#xa;metrics calculation" style="shape=image;verticalLabelPosition=top;labelBackgroundColor=default;verticalAlign=bottom;aspect=fixed;imageAspect=0;image=https://cdn.freebiesupply.com/logos/thumbs/2x/python-5-logo.png;labelPosition=center;align=center;" vertex="1" parent="1">
          <mxGeometry x="575" y="40" width="80" height="60" as="geometry" />
        </mxCell>
        <mxCell id="37ORd5RXPhSGU9sbFM5K-58" style="edgeStyle=orthogonalEdgeStyle;rounded=0;orthogonalLoop=1;jettySize=auto;html=1;entryX=1;entryY=0.5;entryDx=0;entryDy=0;exitX=0;exitY=0.5;exitDx=0;exitDy=0;" edge="1" parent="1" source="37ORd5RXPhSGU9sbFM5K-79" target="37ORd5RXPhSGU9sbFM5K-56">
          <mxGeometry relative="1" as="geometry">
            <mxPoint x="840" y="493" as="sourcePoint" />
          </mxGeometry>
        </mxCell>
        <mxCell id="37ORd5RXPhSGU9sbFM5K-72" style="edgeStyle=orthogonalEdgeStyle;rounded=0;orthogonalLoop=1;jettySize=auto;html=1;exitX=0.5;exitY=1;exitDx=0;exitDy=0;" edge="1" parent="1" source="37ORd5RXPhSGU9sbFM5K-78" target="37ORd5RXPhSGU9sbFM5K-71">
          <mxGeometry relative="1" as="geometry">
            <mxPoint x="280" y="523" as="sourcePoint" />
          </mxGeometry>
        </mxCell>
        <mxCell id="37ORd5RXPhSGU9sbFM5K-66" style="edgeStyle=orthogonalEdgeStyle;rounded=0;orthogonalLoop=1;jettySize=auto;html=1;entryX=1;entryY=0.5;entryDx=0;entryDy=0;" edge="1" parent="1" source="37ORd5RXPhSGU9sbFM5K-56" target="37ORd5RXPhSGU9sbFM5K-65">
          <mxGeometry relative="1" as="geometry" />
        </mxCell>
        <mxCell id="37ORd5RXPhSGU9sbFM5K-56" value="batch prediction" style="shape=image;verticalLabelPosition=bottom;labelBackgroundColor=default;verticalAlign=top;aspect=fixed;imageAspect=0;image=https://cdn.freebiesupply.com/logos/thumbs/2x/python-5-logo.png;" vertex="1" parent="1">
          <mxGeometry x="696" y="463" width="80" height="60" as="geometry" />
        </mxCell>
        <mxCell id="37ORd5RXPhSGU9sbFM5K-69" style="edgeStyle=orthogonalEdgeStyle;rounded=0;orthogonalLoop=1;jettySize=auto;html=1;entryX=1;entryY=0.5;entryDx=0;entryDy=0;" edge="1" parent="1" source="37ORd5RXPhSGU9sbFM5K-59" target="37ORd5RXPhSGU9sbFM5K-78">
          <mxGeometry relative="1" as="geometry">
            <mxPoint x="350" y="493" as="targetPoint" />
          </mxGeometry>
        </mxCell>
        <mxCell id="37ORd5RXPhSGU9sbFM5K-59" value="s3 predictions bucket" style="sketch=0;outlineConnect=0;fontColor=#232F3E;gradientColor=none;fillColor=#3F8624;strokeColor=none;dashed=0;verticalLabelPosition=bottom;verticalAlign=top;align=center;html=1;fontSize=12;fontStyle=0;aspect=fixed;pointerEvents=1;shape=mxgraph.aws4.bucket;" vertex="1" parent="1">
          <mxGeometry x="420" y="463" width="57.69" height="60" as="geometry" />
        </mxCell>
        <mxCell id="37ORd5RXPhSGU9sbFM5K-67" style="edgeStyle=orthogonalEdgeStyle;rounded=0;orthogonalLoop=1;jettySize=auto;html=1;" edge="1" parent="1" source="37ORd5RXPhSGU9sbFM5K-65" target="37ORd5RXPhSGU9sbFM5K-59">
          <mxGeometry relative="1" as="geometry" />
        </mxCell>
        <mxCell id="37ORd5RXPhSGU9sbFM5K-65" value=".csv &#xa;with prediction" style="shape=image;verticalLabelPosition=bottom;labelBackgroundColor=default;verticalAlign=top;aspect=fixed;imageAspect=0;image=https://cdn2.iconfinder.com/data/icons/flat-file-types-1-1/300/icon_file-CSV_plano-512.png;" vertex="1" parent="1">
          <mxGeometry x="555" y="463" width="60" height="60" as="geometry" />
        </mxCell>
        <mxCell id="37ORd5RXPhSGU9sbFM5K-88" style="edgeStyle=orthogonalEdgeStyle;rounded=0;orthogonalLoop=1;jettySize=auto;html=1;" edge="1" parent="1" source="37ORd5RXPhSGU9sbFM5K-70" target="37ORd5RXPhSGU9sbFM5K-87">
          <mxGeometry relative="1" as="geometry" />
        </mxCell>
        <mxCell id="37ORd5RXPhSGU9sbFM5K-70" value="metrics_batch" style="image;aspect=fixed;html=1;points=[];align=center;fontSize=12;image=img/lib/azure2/databases/Azure_Database_PostgreSQL_Server.svg;" vertex="1" parent="1">
          <mxGeometry x="595" y="620" width="45" height="60" as="geometry" />
        </mxCell>
        <mxCell id="37ORd5RXPhSGU9sbFM5K-84" style="edgeStyle=orthogonalEdgeStyle;rounded=0;orthogonalLoop=1;jettySize=auto;html=1;entryX=0;entryY=0.5;entryDx=0;entryDy=0;" edge="1" parent="1" source="37ORd5RXPhSGU9sbFM5K-71" target="37ORd5RXPhSGU9sbFM5K-73">
          <mxGeometry relative="1" as="geometry" />
        </mxCell>
        <mxCell id="37ORd5RXPhSGU9sbFM5K-71" value="batch prediction" style="shape=image;verticalLabelPosition=bottom;labelBackgroundColor=default;verticalAlign=top;aspect=fixed;imageAspect=0;image=https://cdn.freebiesupply.com/logos/thumbs/2x/python-5-logo.png;" vertex="1" parent="1">
          <mxGeometry x="240" y="620" width="80" height="60" as="geometry" />
        </mxCell>
        <mxCell id="37ORd5RXPhSGU9sbFM5K-86" style="edgeStyle=orthogonalEdgeStyle;rounded=0;orthogonalLoop=1;jettySize=auto;html=1;" edge="1" parent="1" source="37ORd5RXPhSGU9sbFM5K-73" target="37ORd5RXPhSGU9sbFM5K-70">
          <mxGeometry relative="1" as="geometry" />
        </mxCell>
        <mxCell id="37ORd5RXPhSGU9sbFM5K-73" value="drift report" style="shape=image;verticalLabelPosition=bottom;labelBackgroundColor=default;verticalAlign=top;aspect=fixed;imageAspect=0;image=https://bookface-images.s3.amazonaws.com/small_logos/ff0b16931b863f29fd0bd341fe033523a5e16dd6.png;clipPath=inset(36.67% 0.67% 38% 4%);" vertex="1" parent="1">
          <mxGeometry x="373.85" y="630.07" width="150" height="39.86013986013986" as="geometry" />
        </mxCell>
        <mxCell id="37ORd5RXPhSGU9sbFM5K-76" style="edgeStyle=orthogonalEdgeStyle;rounded=0;orthogonalLoop=1;jettySize=auto;html=1;entryX=-0.042;entryY=0.498;entryDx=0;entryDy=0;entryPerimeter=0;" edge="1" parent="1" source="37ORd5RXPhSGU9sbFM5K-74" target="37ORd5RXPhSGU9sbFM5K-45">
          <mxGeometry relative="1" as="geometry" />
        </mxCell>
        <mxCell id="37ORd5RXPhSGU9sbFM5K-74" value="regression report" style="shape=image;verticalLabelPosition=bottom;labelBackgroundColor=default;verticalAlign=top;aspect=fixed;imageAspect=0;image=https://bookface-images.s3.amazonaws.com/small_logos/ff0b16931b863f29fd0bd341fe033523a5e16dd6.png;clipPath=inset(36.67% 0.67% 38% 4%);" vertex="1" parent="1">
          <mxGeometry x="700" y="50.07" width="150" height="39.86013986013986" as="geometry" />
        </mxCell>
        <mxCell id="37ORd5RXPhSGU9sbFM5K-77" value="Prefect flow:&#xa;model_training" style="shape=image;verticalLabelPosition=top;labelBackgroundColor=default;verticalAlign=bottom;aspect=fixed;imageAspect=0;image=https://d33wubrfki0l68.cloudfront.net/ed3492ea646ab7411b56ba0bf80b445f2187e38f/d266f/assets/img/full_logo_dark.2d098da5.svg;labelPosition=center;align=center;" vertex="1" parent="1">
          <mxGeometry x="385" y="54.64" width="150" height="35.29" as="geometry" />
        </mxCell>
        <mxCell id="37ORd5RXPhSGU9sbFM5K-78" value="Prefect flow:&#xa;generate_batch_metrics" style="shape=image;verticalLabelPosition=bottom;labelBackgroundColor=default;verticalAlign=top;aspect=fixed;imageAspect=0;image=https://d33wubrfki0l68.cloudfront.net/ed3492ea646ab7411b56ba0bf80b445f2187e38f/d266f/assets/img/full_logo_dark.2d098da5.svg;labelPosition=center;align=center;" vertex="1" parent="1">
          <mxGeometry x="205" y="475.36" width="150" height="35.29" as="geometry" />
        </mxCell>
        <mxCell id="37ORd5RXPhSGU9sbFM5K-79" value="Prefect flow:&#xa;batch_prediction" style="shape=image;verticalLabelPosition=bottom;labelBackgroundColor=default;verticalAlign=top;aspect=fixed;imageAspect=0;image=https://d33wubrfki0l68.cloudfront.net/ed3492ea646ab7411b56ba0bf80b445f2187e38f/d266f/assets/img/full_logo_dark.2d098da5.svg;labelPosition=center;align=center;" vertex="1" parent="1">
          <mxGeometry x="868" y="475.35" width="150" height="35.29" as="geometry" />
        </mxCell>
        <mxCell id="37ORd5RXPhSGU9sbFM5K-82" value="Prefect flow:&#xa;generate_train_metrics" style="shape=image;verticalLabelPosition=top;labelBackgroundColor=default;verticalAlign=bottom;aspect=fixed;imageAspect=0;image=https://d33wubrfki0l68.cloudfront.net/ed3492ea646ab7411b56ba0bf80b445f2187e38f/d266f/assets/img/full_logo_dark.2d098da5.svg;labelPosition=center;align=center;" vertex="1" parent="1">
          <mxGeometry x="868" y="203.36" width="150" height="35.29" as="geometry" />
        </mxCell>
        <mxCell id="37ORd5RXPhSGU9sbFM5K-87" value="batch_metrics dashboard" style="shape=image;verticalLabelPosition=bottom;labelBackgroundColor=default;verticalAlign=top;aspect=fixed;imageAspect=0;image=https://global-uploads.webflow.com/6203daf47137054c031fa0e6/620be9f10cc3d4c77b72b142_grafana_logo.png;labelPosition=center;align=center;" vertex="1" parent="1">
          <mxGeometry x="745" y="620" width="60" height="60" as="geometry" />
        </mxCell>
      </root>
    </mxGraphModel>
  </diagram>
</mxfile>
